<svg width="201" height="201" viewBox="0 0 201 201" fill="none" xmlns="http://www.w3.org/2000/svg">
<path d="M100.5 16.75C54.27 16.75 16.75 54.27 16.75 100.5C16.75 146.73 54.27 184.25 100.5 184.25C146.73 184.25 184.25 146.73 184.25 100.5C184.25 54.27 146.73 16.75 100.5 16.75ZM108.875 159.125H92.125V142.375H108.875V159.125ZM126.211 94.2188L118.674 101.924C114.486 106.195 111.471 110.047 109.964 116.077C109.294 118.757 108.875 121.772 108.875 125.625H92.125V121.438C92.1202 117.037 92.9831 112.678 94.6645 108.611C96.3459 104.544 98.8127 100.849 101.924 97.7363L112.309 87.1837C116.161 83.4987 118.004 77.9712 116.915 72.1087C116.334 69.1115 114.942 66.3314 112.889 64.0718C110.836 61.8121 108.202 60.1598 105.274 59.295C95.9775 56.6987 87.3513 61.975 84.5875 69.9313C83.5825 73.03 80.9862 75.375 77.72 75.375H75.2075C70.35 75.375 67 70.685 68.34 65.995C70.1363 59.8852 73.6335 54.4124 78.4235 50.2157C83.2134 46.0189 89.0984 43.2714 95.3913 42.2938C108.121 40.2838 120.265 46.9 127.803 57.3687C137.685 71.02 134.754 85.6763 126.211 94.2188V94.2188Z" fill="white"/>
</svg>
