<svg width="673" height="676" viewBox="0 0 673 676" fill="none" xmlns="http://www.w3.org/2000/svg">
<g clip-path="url(#clip0_18_2306)">
<path d="M290.154 356.336C368.609 356.336 432.209 293.892 432.209 216.864C432.209 139.836 368.609 77.3921 290.154 77.3921C211.699 77.3921 148.099 139.836 148.099 216.864C148.099 293.892 211.699 356.336 290.154 356.336Z" fill="#E6E6E6"/>
<path d="M407.857 216.864C407.875 233.588 404.192 250.111 397.07 265.253C396.851 265.72 396.625 266.187 396.399 266.654C385.506 288.9 367.81 307.122 345.86 318.693C345.399 318.934 344.939 319.175 344.478 319.409C327.668 328 309.044 332.463 290.154 332.428C283.602 332.43 277.06 331.899 270.594 330.841C270.079 330.755 269.564 330.669 269.057 330.576C244.863 326.284 222.616 314.569 205.421 297.066C205.062 296.7 204.703 296.327 204.336 295.953C187.867 278.812 177.148 256.991 173.661 233.51C173.591 232.996 173.513 232.483 173.451 231.969C170.269 208.095 174.73 183.828 186.197 162.63C186.438 162.171 186.696 161.712 186.946 161.261C195.778 145.536 208.141 132.063 223.068 121.899C223.498 121.603 223.927 121.315 224.356 121.027C238.779 111.465 255.135 105.182 272.265 102.623C272.78 102.553 273.295 102.475 273.81 102.405C279.226 101.666 284.687 101.297 290.154 101.3C307.369 101.272 324.385 104.976 340.022 112.156C340.498 112.374 340.966 112.592 341.434 112.817C356.06 119.775 369.088 129.667 379.703 141.876C380.047 142.265 380.39 142.662 380.718 143.058C393.549 158.157 402.225 176.319 405.897 195.767V195.774C405.999 196.28 406.085 196.786 406.171 197.3C407.295 203.761 407.859 210.306 407.857 216.864Z" fill="white"/>
<path d="M301.776 208.079C303.396 210.081 304.447 212.48 304.82 215.025L361.531 204.36C359.292 192.34 353.952 181.108 346.038 171.769L301.776 208.079Z" fill="#13AE85"/>
<path d="M363.312 205.354C363.242 204.841 363.148 204.335 363.055 203.829V203.821C360.769 191.542 355.319 180.066 347.241 170.522C346.906 170.125 346.562 169.728 346.219 169.346C339.707 161.949 331.785 155.918 322.912 151.603H322.905C322.436 151.378 321.976 151.152 321.5 150.934C308.486 144.976 294.036 142.851 279.851 144.809C279.336 144.872 278.821 144.95 278.306 145.035C268.027 146.657 258.207 150.417 249.481 156.07C249.044 156.35 248.607 156.638 248.178 156.934C238.596 163.41 230.677 172.042 225.059 182.132C224.809 182.584 224.559 183.043 224.309 183.51C217.292 196.827 214.654 212.008 216.769 226.903C216.832 227.424 216.91 227.938 217.004 228.444C219.366 242.792 226.03 256.091 236.119 266.592C236.47 266.965 236.829 267.339 237.203 267.704C247.823 278.377 261.448 285.575 276.268 288.343C276.784 288.444 277.299 288.529 277.814 288.615C293.607 291.228 309.825 288.748 324.107 281.533C324.567 281.3 325.02 281.059 325.48 280.81H325.488C338.99 273.608 349.913 262.401 356.748 248.74C356.982 248.273 357.208 247.806 357.427 247.339C363.594 234.257 365.646 219.62 363.312 205.354ZM356.007 246.693C355.788 247.167 355.562 247.634 355.327 248.094C348.63 261.444 337.946 272.395 324.747 279.44C324.286 279.681 323.826 279.922 323.365 280.156C309.396 287.217 293.528 289.641 278.079 287.074C277.564 286.996 277.041 286.911 276.534 286.809C262.051 284.101 248.735 277.069 238.351 266.646C237.976 266.28 237.617 265.907 237.258 265.533C227.401 255.269 220.88 242.277 218.549 228.257C218.463 227.751 218.385 227.237 218.315 226.724C216.246 212.151 218.824 197.298 225.683 184.265C225.917 183.806 226.167 183.346 226.424 182.887C231.933 173 239.698 164.544 249.091 158.202C249.52 157.907 249.949 157.619 250.386 157.346C258.908 151.835 268.493 148.166 278.524 146.576C279.032 146.49 279.547 146.413 280.07 146.35C293.952 144.433 308.094 146.515 320.828 152.35C321.305 152.56 321.773 152.786 322.233 153.012C330.905 157.223 338.649 163.111 345.017 170.335C345.36 170.724 345.704 171.121 346.032 171.518C353.946 180.856 359.285 192.089 361.525 204.109C361.618 204.615 361.704 205.121 361.782 205.642C364.049 219.593 362.036 233.902 356.007 246.693Z" fill="#CCCCCC"/>
<path d="M284.729 205.253L283.457 206.156L249.091 158.202L248.178 156.934L223.068 121.899C223.498 121.603 223.927 121.315 224.356 121.027L249.481 156.07L250.386 157.346L284.729 205.253Z" fill="#CCCCCC"/>
<path d="M278.587 211.455L277.83 212.825L225.683 184.265L224.309 183.51L186.197 162.63C186.438 162.171 186.696 161.712 186.946 161.261L225.059 182.132L226.425 182.887L278.587 211.455Z" fill="#CCCCCC"/>
<path d="M277.923 221.315L218.549 228.257L217.004 228.444L173.661 233.51C173.591 232.996 173.513 232.483 173.451 231.969L216.769 226.903L218.315 226.724L277.744 219.774L277.923 221.315Z" fill="#CCCCCC"/>
<path d="M281.756 226.545L238.351 266.646L237.203 267.704L205.421 297.066C205.062 296.701 204.703 296.327 204.336 295.953L236.119 266.592L237.258 265.533L280.694 225.401L281.756 226.545Z" fill="#CCCCCC"/>
<path d="M341.434 112.817L322.912 151.603H322.905L322.233 153.012L296.913 206.039L295.508 205.37L320.829 152.35L321.5 150.934L340.022 112.156C340.498 112.374 340.966 112.592 341.434 112.817Z" fill="#CCCCCC"/>
<path d="M380.718 143.058L347.241 170.522L346.032 171.518L300.27 209.058L299.278 207.86L345.017 170.335L346.219 169.346L379.703 141.876C380.047 142.265 380.39 142.662 380.718 143.058Z" fill="#CCCCCC"/>
<path d="M406.171 197.3L363.312 205.354L361.782 205.642L303.134 216.669L302.845 215.144L361.525 204.109L363.055 203.829V203.821L405.897 195.774C405.999 196.28 406.085 196.786 406.171 197.3Z" fill="#CCCCCC"/>
<path d="M397.07 265.253C396.851 265.72 396.625 266.187 396.398 266.654L356.748 248.739L355.327 248.094L301.776 223.899L302.424 222.483L356.006 246.693L357.427 247.339L397.07 265.253Z" fill="#CCCCCC"/>
<path d="M345.86 318.693C345.399 318.934 344.939 319.175 344.478 319.409L324.107 281.533L323.365 280.156L295.524 228.389L296.898 227.658L324.747 279.44L325.48 280.81H325.488L345.86 318.693Z" fill="#CCCCCC"/>
<path d="M287.891 229.642L278.079 287.074L277.814 288.615L270.594 330.841C270.079 330.755 269.564 330.669 269.057 330.576L276.269 288.342L276.534 286.809L286.345 229.377L287.891 229.642Z" fill="#CCCCCC"/>
<path d="M288.335 204.366L286.79 204.584L278.524 146.576L278.306 145.035L272.265 102.623C272.78 102.553 273.295 102.475 273.81 102.405L279.851 144.809L280.07 146.35L288.335 204.366Z" fill="#CCCCCC"/>
<path d="M290.154 231.424C298.344 231.424 304.984 224.905 304.984 216.864C304.984 208.823 298.344 202.304 290.154 202.304C281.964 202.304 275.324 208.823 275.324 216.864C275.324 224.905 281.964 231.424 290.154 231.424Z" fill="#3F3D56"/>
<path d="M595.22 623.899L584.12 633.165L542.986 594.886L559.369 581.209L595.22 623.899Z" fill="#A0616A"/>
<path d="M605.307 635.117L571.173 663.615L570.811 663.184C567.861 659.671 566.431 655.133 566.836 650.569C567.241 646.005 569.448 641.788 572.972 638.846L572.973 638.845L575.246 628.923L590.841 623.927L593.821 621.44L605.307 635.117Z" fill="#2F2E41"/>
<path d="M496.044 659.236L481.568 659.235L474.68 603.557L496.048 603.558L496.044 659.236Z" fill="#A0616A"/>
<path d="M496.554 674.294L452.034 674.293V673.731C452.034 669.149 453.86 664.755 457.109 661.515C460.359 658.275 464.767 656.454 469.362 656.454L477.496 650.303L492.669 656.455L496.555 656.455L496.554 674.294Z" fill="#2F2E41"/>
<path d="M532.255 392.796C535.753 397.154 534.004 411.974 534.004 411.974L534.861 504.268C549.725 516.472 561.108 567.143 561.108 567.143L575.3 593.177C573.552 598.407 562.207 618.86 558.71 617.989C557.087 617.584 536.888 599.011 523.456 571.467C507.938 539.648 499.031 498.276 499.031 498.276C499.031 498.276 500.78 616.832 500.78 622.062C500.78 627.293 477.173 624.678 471.927 624.678C466.681 624.678 439.678 411.102 439.678 411.102V398.898L444.05 392.796C444.05 392.796 528.758 388.437 532.255 392.796Z" fill="#748EFE"/>
<path d="M344.306 195.737L333.704 200.671L345.52 198.204C345.52 198.204 354.202 198.556 354.202 195.033L368.339 187.28C368.339 187.28 380.355 193.623 383.89 190.099C387.424 186.576 381.062 179.528 381.062 179.528C381.062 179.528 385.321 177.186 384.959 176.243C384.596 175.3 378.942 176.709 378.942 176.709C378.942 176.709 365.512 168.957 366.219 182.347L352.082 191.692C352.082 191.692 345.013 191.509 344.306 195.737Z" fill="#3F3D56"/>
<path d="M537.113 422.976C518.558 432.154 496.479 434.931 475.683 432.493C457.754 430.389 454.026 410.416 437.385 403.33C442.643 388.266 442.706 368.268 441.818 362.656C440.298 353.073 440.015 286.282 445.584 279.326C452.888 270.201 464.038 265.326 463.531 253.663L465.093 255.262C463.12 250.084 466.942 244.157 471.974 241.815C477.006 239.473 482.82 239.77 488.365 240.115C493.033 240.406 497.702 240.697 502.37 240.988C501.759 242.889 501.612 244.907 501.939 246.875C502.267 248.843 503.061 250.706 504.254 252.307C512.53 250.03 521.259 256.082 524.956 263.799C528.653 271.521 528.563 280.432 528.396 288.987C528.205 298.885 535.563 368.397 526.661 372.796C531.252 373.949 537.742 398.361 533.825 395.716C535.637 396.982 535.199 408.803 537.113 422.976Z" fill="#FE6332"/>
<path d="M356.753 184.234C358.754 183.647 360.859 183.505 362.921 183.818C364.983 184.131 366.95 184.89 368.686 186.043C370.421 187.196 371.882 188.714 372.965 190.491C374.048 192.268 374.728 194.26 374.955 196.326L453.683 265.342L439.467 274.758L361.328 212.264C357.82 212.415 354.379 211.278 351.656 209.068C348.933 206.858 347.117 203.73 346.553 200.274C345.989 196.819 346.716 193.278 348.596 190.322C350.476 187.365 353.379 185.199 356.753 184.234Z" fill="#A0616A"/>
<path d="M441.535 243.078C439.811 243.177 399.124 213.577 398.083 214.949L395.349 229.735L387.829 239.65L404.086 256.834L408.731 260.632L411.717 263.781C410.673 265.174 417.607 272.639 417.983 274.342C418.164 275.176 418.524 275.962 419.036 276.645C419.549 277.329 420.203 277.895 420.953 278.304L447.409 292.616C450.936 295.227 455.357 296.337 459.704 295.703C464.05 295.068 467.967 292.741 470.595 289.232C473.223 285.722 474.349 281.317 473.724 276.982C473.099 272.646 470.776 268.735 467.263 266.105L463.361 262.17L457.384 256.13L446.198 244.836C445.595 244.223 444.865 243.749 444.06 243.446C443.255 243.142 442.393 243.017 441.535 243.078Z" fill="#FE6332"/>
<path d="M485.425 232.298C501.275 232.298 514.124 219.487 514.124 203.685C514.124 187.882 501.275 175.071 485.425 175.071C469.576 175.071 456.727 187.882 456.727 203.685C456.727 219.487 469.576 232.298 485.425 232.298Z" fill="#A0616A"/>
<path d="M519.659 194.623C518.064 188.309 512.111 182.8 505.612 183.439C506.415 178.575 503.167 173.676 498.79 171.384C494.412 169.091 489.183 168.993 484.304 169.792C481.47 170.304 478.664 170.958 475.896 171.75C473.548 172.38 462.537 168.622 460.205 169.308C458.21 169.895 453.41 177.02 451.896 178.441C450.381 179.863 449.579 182.255 450.591 184.067C451.589 185.856 453.874 186.438 455.921 186.606C457.968 186.774 460.167 186.744 461.865 187.894C464.049 189.373 464.667 192.32 464.578 194.95C464.49 197.58 463.885 200.232 464.377 202.817C464.87 205.402 466.968 207.984 469.601 207.807C471.572 205.735 475.173 205.868 477.435 207.621C478.516 208.563 479.38 209.727 479.967 211.034C480.555 212.34 480.852 213.758 480.839 215.189C480.793 218.049 480.347 220.888 479.515 223.625C479.041 225.515 478.684 227.805 480.088 229.16C480.915 229.817 481.91 230.231 482.96 230.355C487.103 231.233 502.653 230.043 506.796 230.92L506.475 230.289C509.477 224.506 513.46 219.27 516.41 213.46C519.36 207.651 521.255 200.937 519.659 194.623Z" fill="#2F2E41"/>
<path d="M563.71 430.94C561.682 430.456 559.785 429.534 558.153 428.24C556.521 426.946 555.194 425.311 554.264 423.45C553.334 421.588 552.825 419.547 552.772 417.468C552.72 415.39 553.125 413.325 553.959 411.419L520.125 312.492L537.155 311.379L573.735 404.358C576.853 405.968 579.27 408.661 580.529 411.929C581.787 415.197 581.8 418.812 580.565 422.088C579.329 425.365 576.931 428.076 573.824 429.707C570.718 431.339 567.119 431.777 563.71 430.94Z" fill="#A0616A"/>
<path d="M512.289 325.425C513.834 326.195 534.348 372.058 535.936 371.384L545.688 359.917L557.161 355.048L551.637 332.077L549.504 326.477L548.486 322.265C550.087 321.575 547.799 311.659 548.324 309.995C548.582 309.181 548.663 308.322 548.559 307.475C548.456 306.627 548.171 305.812 547.724 305.084L531.922 279.543C530.166 275.528 526.885 272.371 522.799 270.765C518.712 269.158 514.153 269.233 510.121 270.973C506.09 272.712 502.915 275.975 501.293 280.046C499.67 284.116 499.733 288.662 501.468 292.686L502.888 298.036L505.058 306.24L509.122 321.587C509.34 322.417 509.736 323.191 510.283 323.853C510.829 324.516 511.514 325.052 512.289 325.425Z" fill="#FE6332"/>
<path d="M643.208 657.923L635.213 645.114L633.617 652.434C633.337 653.716 633.057 655.018 632.797 656.311C630.527 654.377 628.111 652.589 625.747 650.873C618.488 645.621 611.234 640.362 603.982 635.097L606.253 648.226C607.653 656.311 609.115 664.561 612.578 671.952C612.962 672.79 613.376 673.617 613.822 674.423H647.563C647.834 673.674 648.022 672.898 648.123 672.108C648.131 672.056 648.135 672.004 648.133 671.953C648.662 666.938 645.883 662.214 643.208 657.923Z" fill="#F0F0F0"/>
<path d="M671.765 675.682L385.841 676C385.514 676 385.2 675.87 384.968 675.639C384.737 675.409 384.607 675.095 384.607 674.769C384.607 674.443 384.737 674.129 384.968 673.899C385.2 673.668 385.514 673.538 385.841 673.538L671.765 673.22C671.928 673.22 672.089 673.251 672.239 673.313C672.389 673.375 672.526 673.465 672.641 673.58C672.756 673.694 672.847 673.83 672.909 673.979C672.972 674.129 673.004 674.289 673.004 674.451C673.004 674.613 672.972 674.774 672.909 674.923C672.847 675.073 672.756 675.209 672.641 675.323C672.526 675.437 672.389 675.528 672.239 675.59C672.089 675.651 671.928 675.683 671.765 675.682Z" fill="#CACACA"/>
</g>
<defs>
<clipPath id="clip0_18_2306">
<rect width="673" height="676" fill="white"/>
</clipPath>
</defs>
</svg>
